<svg xmlns="http://www.w3.org/2000/svg" width="3313.095" height="1236.012" viewBox="0 0 3313.095 1236.012">
  <g id="Component_3_1" data-name="Component 3 – 1" transform="translate(24.065 23.995)">
    <path id="Path_1" data-name="Path 1" d="M0,0S184.4-602.646-122.809-500.223C-469.1-339.812-540.158,153.334-485.89,446.522c25.911,139.986,99.052,207.869,149.442,222.04,294.23,73.225,616.483-416.855,616.483-416.855" transform="translate(502.229 511.942)" fill="none" stroke="red" stroke-linecap="round" stroke-linejoin="round" stroke-width="48"/>
    <path id="Path_2" data-name="Path 2" d="M0,0S-44,295.644-58.662,534.5s0,412.295,0,412.295S59.1,682.419,134.356,658.8c57.35-30.729,52.758,131.546,96.7,135.681,85.7,8.064,196.65-158.713,196.65-158.713" transform="translate(853.229 90.942)" fill="none" stroke="red" stroke-linecap="round" stroke-linejoin="round" stroke-width="48"/>
    <path id="Path_3" data-name="Path 3" d="M20.119.752S-41.3,237.332,42.273,231.437c27.077-1.91,54.4-41.5,82.194-78.747,57.4-76.926,108.685-181.627,108.685-181.627S154.627,258,212.894,296.942,459.112,29.865,459.112,29.865" transform="translate(1272.229 673.942)" fill="none" stroke="red" stroke-linecap="round" stroke-linejoin="round" stroke-width="48"/>
    <path id="Path_4" data-name="Path 4" d="M0,0S-44,295.644-58.662,534.5s0,412.295,0,412.295S59.1,682.419,134.356,658.8c57.35-30.729,52.758,131.546,96.7,135.681,85.7,8.064,196.65-158.713,196.65-158.713" transform="translate(2187.519 51.243) rotate(1)" fill="none" stroke="red" stroke-linecap="round" stroke-linejoin="round" stroke-width="48"/>
    <path id="Path_5" data-name="Path 5" d="M-314.945-434.238S-324.6-538.4-395.436-505.656C-496.991-458.613-523.62-311.219-507.705-225.237c7.6,41.053,28.449,104.417,90.3,106.274,86.287,21.474,313.194-271.926,313.194-271.926" transform="translate(2209.229 1123.496)" fill="none" stroke="red" stroke-linecap="round" stroke-linejoin="round" stroke-width="48"/>
    <path id="Path_6" data-name="Path 6" d="M6.211-21.226A412.713,412.713,0,0,0-12.912,71.619c-7.248,84.473,3.3,197.627,78.906,206.216,108,3.925,179.042-344.017,14.454-353.939-30.13-1.816-56.482,26.838-64.83,60.193-11.588,46.3,6.547,103.9,50.376,119.4,34.845,12.321,59.959,21.181,135.461,6.06S371.73,27.121,371.73,27.121" transform="translate(2615.229 648.942)" fill="none" stroke="red" stroke-linecap="round" stroke-linejoin="round" stroke-width="48"/>
    <path id="Path_7" data-name="Path 7" d="M0,0S-53.459-89.968-89.353,0,.072,186.251-24.327,279.612-158.2,391.57-177.366,349.118s21.641-98.679,118.09-172.992S199,54,199,54" transform="translate(3083.229 635.942)" fill="none" stroke="red" stroke-linecap="round" stroke-linejoin="round" stroke-width="48"/>
  </g>
</svg>
